# xmcd CD database file
#
# Track frame offsets:
#	150
#	12150
#	31500
#	46875
#	62550
#	75600
#	90225
#	104925
#	120750
#	130950
#	144525
#	159600
#	173475
#	181050
#	195300
#	203625
#
# Disc length: 2869 seconds
#
# Revision: 0
# Processed by: cddbd v1.5.2PL0 Copyright (c) Steve Scherf et al.
# Submitted via: CDex 1.70beta2
#
DISCID=bb0b3310
DTITLE=ruzni - Country hity 2
DYEAR=2003
DGENRE=Country
TTITLE0=N. Urbankova - Svatebni pruvod
TTITLE1=P. Spaleny - Obycejny muz
TTITLE2=V. Martinova a Schovanky - Mas ho akorat
TTITLE3=J. Smolik - Holka s bílou halenkou
TTITLE4=J. Vancura - Vitam vas
TTITLE5=M Drobny - Pisen pro kocku
TTITLE6=M Vobornikova - Gabin
TTITLE7=V. Cech - Kilimandzaro
TTITLE8=Hop Trop - Zamky
TTITLE9=Samson a jeho Parta - Vzpominka
TTITLE10=J. Chladkova - Par dni
TTITLE11=M. Hoffmann - Zatoka
TTITLE12=Ptrazce - Nahodna
TTITLE13=Auris - Uplne cizi kluk
TTITLE14=Minaret - Rodnej Naschville
TTITLE15=M.Zichova - Kvetomluva
EXTD=YEAR: 2003
EXTT0=
EXTT1=
EXTT2=
EXTT3=
EXTT4=
EXTT5=
EXTT6=
EXTT7=
EXTT8=
EXTT9=
EXTT10=
EXTT11=
EXTT12=
EXTT13=
EXTT14=
EXTT15=
PLAYORDER=
